<svg width="11" height="11" viewBox="0 0 11 11" fill="none" xmlns="http://www.w3.org/2000/svg">
<path d="M0.833333 6C3.13452 6 5 7.86548 5 10.1667V10.5C5 10.7761 5.22386 11 5.5 11C5.77614 11 6 10.7761 6 10.5V10.1667C6 7.86548 7.86548 6 10.1667 6H10.5C10.7761 6 11 5.77614 11 5.5C11 5.22386 10.7761 5 10.5 5H10.1667C7.86548 5 6 3.13452 6 0.833333V0.5C6 0.223858 5.77614 0 5.5 0C5.22386 0 5 0.223858 5 0.5V0.833334C5 3.13452 3.13452 5 0.833333 5H0.5C0.223858 5 0 5.22386 0 5.5C0 5.77614 0.223858 6 0.5 6H0.833333Z" fill="#0C002B"/>
</svg>
